<?xml version="1.0" encoding="UTF-8"?>
<!DOCTYPE svg PUBLIC "-//W3C//DTD SVG 1.1//EN" "http://www.w3.org/Graphics/SVG/1.1/DTD/svg11.dtd">
<svg xmlns="http://www.w3.org/2000/svg" version="1.1" width="179px" height="143px" style="shape-rendering:geometricPrecision; text-rendering:geometricPrecision; image-rendering:optimizeQuality; fill-rule:evenodd; clip-rule:evenodd" xmlns:xlink="http://www.w3.org/1999/xlink">
<g><path style="opacity:1" fill="#fdfefe" d="M -0.5,-0.5 C 59.1667,-0.5 118.833,-0.5 178.5,-0.5C 178.5,47.1667 178.5,94.8333 178.5,142.5C 118.833,142.5 59.1667,142.5 -0.5,142.5C -0.5,94.8333 -0.5,47.1667 -0.5,-0.5 Z"/></g>
<g><path style="opacity:1" fill="#37f5c4" d="M 70.5,10.5 C 76.3277,11.4332 77.4944,14.0998 74,18.5C 73.3333,22.8333 73.3333,27.1667 74,31.5C 77,33.8333 80,36.1667 83,38.5C 84.2419,37.1279 85.7419,36.1279 87.5,35.5C 89.009,29.6389 88.6757,23.9722 86.5,18.5C 88.0067,14.1649 90.5067,13.4982 94,16.5C 93.0779,20.2976 92.5779,24.2976 92.5,28.5C 92.8333,30.8333 93.1667,33.1667 93.5,35.5C 95.2581,36.1279 96.7581,37.1279 98,38.5C 101,36.1667 104,33.8333 107,31.5C 107.667,27.1667 107.667,22.8333 107,18.5C 103.501,14.9744 104.168,12.3077 109,10.5C 110.261,10.7591 111.261,11.4258 112,12.5C 110.941,19.3143 110.275,26.3143 110,33.5C 106.642,36.3585 103.142,39.0251 99.5,41.5C 97.6283,50.436 92.6283,52.936 84.5,49C 83.1919,46.6451 82.1919,44.1451 81.5,41.5C 77.8579,39.0251 74.3579,36.3585 71,33.5C 71.0036,27.1238 70.1703,20.9572 68.5,15C 68.5186,13.167 69.1852,11.667 70.5,10.5 Z"/></g>
<g><path style="opacity:1" fill="#f4fefc" d="M 89.5,17.5 C 91.337,17.6395 91.6704,18.3061 90.5,19.5C 89.7025,19.0431 89.3691,18.3764 89.5,17.5 Z"/></g>
<g><path style="opacity:1" fill="#43cfe4" d="M 51.5,32.5 C 52.1098,33.391 52.4431,34.391 52.5,35.5C 50.5642,36.259 48.7309,37.259 47,38.5C 43.0344,36.3354 42.5344,33.502 45.5,30C 46.5,29.3333 47.5,29.3333 48.5,30C 49.3734,31.045 50.3734,31.8783 51.5,32.5 Z"/></g>
<g><path style="opacity:1" fill="#36f6c3" d="M 132.5,30.5 C 138.704,30.3137 140.037,32.8137 136.5,38C 134.339,38.7216 132.672,38.0549 131.5,36C 121.716,33.1346 115.049,36.3013 111.5,45.5C 113.4,49.3575 116.567,51.0242 121,50.5C 125.354,50.3508 129.52,49.8508 133.5,49C 135.787,51.0483 135.954,53.2149 134,55.5C 127.664,54.5249 121.164,54.5249 114.5,55.5C 113.289,56.8745 112.289,58.3745 111.5,60C 113.494,62.9832 115.494,65.9832 117.5,69C 124.359,69.6977 131.026,69.3644 137.5,68C 139.486,74.3448 137.486,76.0115 131.5,73C 126.5,72.6667 121.5,72.3333 116.5,72C 113.5,68.3333 110.5,64.6667 107.5,61C 98.2569,58.851 96.2569,53.851 101.5,46C 103.804,45.1048 106.138,44.2715 108.5,43.5C 110.975,39.8579 113.642,36.3579 116.5,33C 121.5,32.6667 126.5,32.3333 131.5,32C 132.056,31.6174 132.389,31.1174 132.5,30.5 Z"/></g>
<g><path style="opacity:1" fill="#2bded5" d="M 51.5,32.5 C 56.544,32.1725 61.544,32.5059 66.5,33.5C 68.8333,36.8333 71.1667,40.1667 73.5,43.5C 81.7472,44.3901 84.7472,48.7235 82.5,56.5C 81.5,55.8333 80.5,55.1667 79.5,54.5C 78.7873,48.2805 75.7873,46.9472 70.5,50.5C 70.1667,49.5 69.5,48.8333 68.5,48.5C 68.7031,46.9557 69.3698,45.6223 70.5,44.5C 68.5,41.8333 66.5,39.1667 64.5,36.5C 60.5546,35.5091 56.5546,35.1758 52.5,35.5C 52.4431,34.391 52.1098,33.391 51.5,32.5 Z"/></g>
<g><path style="opacity:1" fill="#f9fefd" d="M 88.5,38.5 C 94.6426,39.0262 95.9759,41.8595 92.5,47C 87.5036,47.6643 85.6703,45.4977 87,40.5C 87.7172,39.9558 88.2172,39.2891 88.5,38.5 Z"/></g>
<g><path style="opacity:1" fill="#f8fdfd" d="M 79.5,54.5 C 74.2127,58.0528 71.2127,56.7195 70.5,50.5C 75.7873,46.9472 78.7873,48.2805 79.5,54.5 Z"/></g>
<g><path style="opacity:1" fill="#f8fefd" d="M 104.5,48.5 C 111.004,48.1377 112.671,50.6377 109.5,56C 102.745,56.7558 101.078,54.2558 104.5,48.5 Z"/></g>
<g><path style="opacity:1" fill="#3cb7f6" d="M 54.5,50.5 C 58.1645,51.0738 61.8312,51.9072 65.5,53C 61.6437,53.1773 57.977,53.6773 54.5,54.5C 50.9482,57.6122 48.2815,56.9455 46.5,52.5C 48.2815,48.0545 50.9482,47.3878 54.5,50.5 Z"/></g>
<g><path style="opacity:1" fill="#3fcce8" d="M 68.5,48.5 C 69.5,48.8333 70.1667,49.5 70.5,50.5C 71.2127,56.7195 74.2127,58.0528 79.5,54.5C 80.5,55.1667 81.5,55.8333 82.5,56.5C 82.0472,57.4584 81.3805,58.2917 80.5,59C 77.5534,59.7378 74.8867,60.9044 72.5,62.5C 72.5,61.1667 71.8333,60.5 70.5,60.5C 69.9524,58.6064 68.9524,56.9397 67.5,55.5C 63.2172,54.5078 58.8839,54.1744 54.5,54.5C 57.977,53.6773 61.6437,53.1773 65.5,53C 61.8312,51.9072 58.1645,51.0738 54.5,50.5C 59.4797,51.0147 64.1464,50.348 68.5,48.5 Z"/></g>
<g><path style="opacity:1" fill="#fafefe" d="M 88.5,57.5 C 93.3234,57.3272 95.3234,59.6606 94.5,64.5C 88.7442,67.9217 86.2442,66.255 87,59.5C 87.7172,58.9558 88.2172,58.2891 88.5,57.5 Z"/></g>
<g><path style="opacity:1" fill="#26d1de" d="M 86.5,55.5 C 86.5,56.8333 87.1667,57.5 88.5,57.5C 88.2172,58.2891 87.7172,58.9558 87,59.5C 86.2442,66.255 88.7442,67.9217 94.5,64.5C 95.2905,65.4013 96.2905,66.0679 97.5,66.5C 96.3282,68.539 94.6616,69.8724 92.5,70.5C 89.1292,68.1542 85.7959,65.8208 82.5,63.5C 81.7741,59.693 83.1074,57.0263 86.5,55.5 Z"/></g>
<g><path style="opacity:1" fill="#2fe2d3" d="M 110.5,79.5 C 109.5,78.8333 108.5,78.1667 107.5,77.5C 107.657,76.1266 107.49,74.7932 107,73.5C 103.956,70.9491 100.789,68.6158 97.5,66.5C 96.2905,66.0679 95.2905,65.4013 94.5,64.5C 95.3234,59.6606 93.3234,57.3272 88.5,57.5C 87.1667,57.5 86.5,56.8333 86.5,55.5C 91.0463,52.6433 94.8797,53.6433 98,58.5C 98.2022,60.2556 98.7022,61.9223 99.5,63.5C 103.142,65.9749 106.642,68.6415 110,71.5C 110.497,74.146 110.664,76.8127 110.5,79.5 Z"/></g>
<g><path style="opacity:1" fill="#4bcdeb" d="M 82.5,63.5 C 85.7959,65.8208 89.1292,68.1542 92.5,70.5C 92.5,74.5 92.5,78.5 92.5,82.5C 91.9177,79.1677 91.0844,75.8344 90,72.5C 89.8213,76.0252 89.3213,79.3586 88.5,82.5C 88.6655,78.4862 88.4988,74.4862 88,70.5C 86.0448,69.5467 84.3782,68.2134 83,66.5C 81.0083,67.6647 79.175,68.998 77.5,70.5C 77.5,69.1667 76.8333,68.5 75.5,68.5C 77.5496,66.4525 79.883,64.7859 82.5,63.5 Z"/></g>
<g><path style="opacity:1" fill="#18a7fd" d="M 70.5,60.5 C 71.8333,60.5 72.5,61.1667 72.5,62.5C 70.3842,65.7889 68.0509,68.9556 65.5,72C 58.3143,72.2748 51.3143,72.9415 44.5,74C 43.1667,72 43.1667,70 44.5,68C 50.9743,69.3644 57.641,69.6977 64.5,69C 66.3867,66.0498 68.3867,63.2165 70.5,60.5 Z"/></g>
<g><path style="opacity:1" fill="#d3eeff" d="M 46.5,69.5 C 48.7602,70.2376 48.9269,71.2376 47,72.5C 46.5172,71.552 46.3505,70.552 46.5,69.5 Z"/></g>
<g><path style="opacity:1" fill="#22a8fe" d="M 75.5,68.5 C 76.8333,68.5 77.5,69.1667 77.5,70.5C 74.4495,72.5191 73.1162,75.5191 73.5,79.5C 73.6261,84.0217 74.1261,88.355 75,92.5C 68.6552,94.4863 66.9885,92.4863 70,86.5C 70.3333,81.5 70.6667,76.5 71,71.5C 72.2708,70.1175 73.7708,69.1175 75.5,68.5 Z"/></g>
<g><path style="opacity:1" fill="#36b2f9" d="M 92.5,82.5 C 95.5989,86.1042 94.9323,88.7709 90.5,90.5C 86.0677,88.7709 85.4011,86.1042 88.5,82.5C 89.3213,79.3586 89.8213,76.0252 90,72.5C 91.0844,75.8344 91.9177,79.1677 92.5,82.5 Z"/></g>
<g><path style="opacity:1" fill="#37c9e7" d="M 107.5,77.5 C 108.5,78.1667 109.5,78.8333 110.5,79.5C 110.602,84.0185 111.102,88.3519 112,92.5C 108.505,95.3365 106.005,94.5031 104.5,90C 107.196,86.3471 108.196,82.1804 107.5,77.5 Z"/></g>
<g><path style="opacity:1" fill="#26246e" d="M 13.5,104.5 C 19.8333,104.5 26.1667,104.5 32.5,104.5C 32.5,105.5 32.5,106.5 32.5,107.5C 29.8333,107.5 27.1667,107.5 24.5,107.5C 24.8303,114.532 24.497,121.532 23.5,128.5C 22.914,128.291 22.414,127.957 22,127.5C 21.5004,120.842 21.3337,114.175 21.5,107.5C 18.8333,107.5 16.1667,107.5 13.5,107.5C 13.5,106.5 13.5,105.5 13.5,104.5 Z"/></g>
<g><path style="opacity:1" fill="#27246e" d="M 76.5,103.5 C 77.5,103.5 78.5,103.5 79.5,103.5C 79.3359,106.187 79.5026,108.854 80,111.5C 89.0914,108.262 93.2581,111.429 92.5,121C 92.1667,123.5 91.8333,126 91.5,128.5C 91.1667,128.333 90.8333,128.167 90.5,128C 89.6971,123.586 89.1971,119.086 89,114.5C 85.76,112.964 82.76,113.297 80,115.5C 79.501,119.821 79.3343,124.154 79.5,128.5C 78.5,128.5 77.5,128.5 76.5,128.5C 76.5,120.167 76.5,111.833 76.5,103.5 Z"/></g>
<g><path style="opacity:1" fill="#2e2b73" d="M 97.5,104.5 C 98.7498,104.577 99.5831,105.244 100,106.5C 101.667,111.5 103.333,116.5 105,121.5C 106.607,115.899 108.44,110.399 110.5,105C 111.449,104.383 112.282,104.549 113,105.5C 114.682,110.566 116.515,115.566 118.5,120.5C 120.15,116.243 121.65,111.91 123,107.5C 123.669,104.733 124.836,104.233 126.5,106C 124.316,113.409 121.983,120.742 119.5,128C 118.551,128.617 117.718,128.451 117,127.5C 115.333,121.833 113.667,116.167 112,110.5C 109.93,116.761 107.43,122.761 104.5,128.5C 101.354,120.729 99.0203,112.729 97.5,104.5 Z"/></g>
<g><path style="opacity:1" fill="#292670" d="M 151.5,103.5 C 153.08,105.717 154.08,108.384 154.5,111.5C 162.669,108.404 167.002,111.071 167.5,119.5C 167.647,122.253 166.98,124.753 165.5,127C 160.517,128.24 155.517,128.74 150.5,128.5C 150.198,120.082 150.531,111.748 151.5,103.5 Z"/></g>
<g><path style="opacity:1" fill="#2a2771" d="M 35.5,110.5 C 39.6372,110.146 43.6372,110.646 47.5,112C 49.3137,114.481 49.9804,117.315 49.5,120.5C 44.8333,120.5 40.1667,120.5 35.5,120.5C 35.2865,122.144 35.6198,123.644 36.5,125C 39.5,125.667 42.5,125.667 45.5,125C 46.3079,123.294 47.6412,122.461 49.5,122.5C 49.5479,125.292 48.2146,127.125 45.5,128C 34.2354,130.364 30.0688,125.864 33,114.5C 33.6622,113.016 34.4955,111.683 35.5,110.5 Z"/></g>
<g><path style="opacity:1" fill="#2b2871" d="M 58.5,110.5 C 62.5839,110.043 66.4172,110.71 70,112.5C 70.5054,115.514 69.6721,116.014 67.5,114C 64.8333,113.333 62.1667,113.333 59.5,114C 55.7056,125.042 59.0389,128.209 69.5,123.5C 70.731,124.651 70.731,125.817 69.5,127C 56.8947,131.063 52.3947,126.563 56,113.5C 56.6979,112.309 57.5313,111.309 58.5,110.5 Z"/></g>
<g><path style="opacity:1" fill="#27256f" d="M 130.5,110.5 C 134.911,110.021 139.078,110.688 143,112.5C 144.631,114.955 144.797,117.455 143.5,120C 139.179,120.499 134.846,120.666 130.5,120.5C 130.286,122.144 130.62,123.644 131.5,125C 134.5,125.667 137.5,125.667 140.5,125C 141.575,122.317 142.575,122.151 143.5,124.5C 143.41,126.425 142.41,127.592 140.5,128C 128.897,130.052 124.731,125.219 128,113.5C 129.045,112.627 129.878,111.627 130.5,110.5 Z"/></g>
<g><path style="opacity:1" fill="#f1f1f6" d="M 36.5,113.5 C 39.5184,113.335 42.5184,113.502 45.5,114C 46.3366,115.011 46.67,116.178 46.5,117.5C 42.8333,117.5 39.1667,117.5 35.5,117.5C 35.4326,116.041 35.7659,114.708 36.5,113.5 Z"/></g>
<g><path style="opacity:1" fill="#f3f3f7" d="M 131.5,113.5 C 134.187,113.336 136.854,113.503 139.5,114C 140.973,114.71 141.64,115.876 141.5,117.5C 137.833,117.5 134.167,117.5 130.5,117.5C 130.433,116.041 130.766,114.708 131.5,113.5 Z"/></g>
<g><path style="opacity:1" fill="#f4f4f8" d="M 154.5,113.5 C 164.487,112.332 167.154,116.165 162.5,125C 159.571,125.777 156.737,125.61 154,124.5C 153.245,120.745 153.411,117.078 154.5,113.5 Z"/></g>
</svg>
